<?xml version="1.0" encoding="UTF-8" standalone="no"?>
<!DOCTYPE svg PUBLIC "-//W3C//DTD SVG 1.1//EN"
 "http://www.w3.org/Graphics/SVG/1.1/DTD/svg11.dtd">
<!-- Generated by graphviz version 2.44.1 (20200629.0846)
 -->
<!-- Title: dependencies Pages: 1 -->
<svg width="504pt" height="284pt"
 viewBox="0.00 0.00 504.00 284.00" xmlns="http://www.w3.org/2000/svg" xmlns:xlink="http://www.w3.org/1999/xlink">
<g id="graph0" class="graph" transform="scale(1 1) rotate(0) translate(4 280)">
<title>dependencies</title>
<polygon fill="white" stroke="transparent" points="-4,4 -4,-280 500,-280 500,4 -4,4"/>
<text text-anchor="start" x="227.01" y="-42.4" font-family="sans-serif" font-weight="bold" font-size="14.00">Legend</text>
<polygon fill="#ffffb3" stroke="transparent" points="14,-10 14,-30 34,-30 34,-10 14,-10"/>
<text text-anchor="start" x="37.63" y="-15.4" font-family="sans-serif" font-size="14.00"> &#160;Declarations</text>
<polygon fill="#8dd3c7" stroke="transparent" points="127,-10 127,-30 147,-30 147,-10 127,-10"/>
<text text-anchor="start" x="150.73" y="-15.4" font-family="sans-serif" font-size="14.00"> &#160;Module</text>
<polygon fill="#80b1d3" stroke="transparent" points="213,-10 213,-30 233,-30 233,-10 213,-10"/>
<text text-anchor="start" x="236.78" y="-15.4" font-family="sans-serif" font-size="14.00"> &#160;Bootstrap</text>
<polygon fill="#fdb462" stroke="transparent" points="310,-10 310,-30 330,-30 330,-10 310,-10"/>
<text text-anchor="start" x="333.67" y="-15.4" font-family="sans-serif" font-size="14.00"> &#160;Providers</text>
<polygon fill="#fb8072" stroke="transparent" points="406,-10 406,-30 426,-30 426,-10 406,-10"/>
<text text-anchor="start" x="429.73" y="-15.4" font-family="sans-serif" font-size="14.00"> &#160;Exports</text>
<g id="clust1" class="cluster">
<title>cluster_AuthModule</title>
<polygon fill="none" stroke="black" stroke-dasharray="1,5" points="52,-70 52,-268 444,-268 444,-70 52,-70"/>
</g>
<g id="clust4" class="cluster">
<title>cluster_AuthModule_exports</title>
<polygon fill="none" stroke="black" points="131,-208 131,-260 341,-260 341,-208 131,-208"/>
</g>
<g id="clust6" class="cluster">
<title>cluster_AuthModule_providers</title>
<polygon fill="none" stroke="black" points="170,-78 170,-130 436,-130 436,-78 170,-78"/>
</g>
<g id="clust3" class="cluster">
<title>cluster_AuthModule_imports</title>
<polygon fill="none" stroke="black" points="60,-78 60,-130 162,-130 162,-78 60,-78"/>
</g>
<!-- UserModule -->
<g id="node1" class="node">
<title>UserModule</title>
<polygon fill="#8dd3c7" stroke="black" points="153.98,-122 150.98,-126 129.98,-126 126.98,-122 68.02,-122 68.02,-86 153.98,-86 153.98,-122"/>
<text text-anchor="middle" x="111" y="-99.8" font-family="Times,serif" font-size="14.00">UserModule</text>
</g>
<!-- AuthModule -->
<g id="node2" class="node">
<title>AuthModule</title>
<polygon fill="#8dd3c7" stroke="black" points="278.55,-187 275.55,-191 254.55,-191 251.55,-187 191.45,-187 191.45,-151 278.55,-151 278.55,-187"/>
<text text-anchor="middle" x="235" y="-164.8" font-family="Times,serif" font-size="14.00">AuthModule</text>
</g>
<!-- UserModule&#45;&gt;AuthModule -->
<g id="edge1" class="edge">
<title>UserModule&#45;&gt;AuthModule</title>
<path fill="none" stroke="black" d="M146.6,-122.11C146.6,-141.34 146.6,-169 146.6,-169 146.6,-169 181.32,-169 181.32,-169"/>
<polygon fill="black" stroke="black" points="181.32,-172.5 191.32,-169 181.32,-165.5 181.32,-172.5"/>
</g>
<!-- AuthService  -->
<g id="node3" class="node">
<title>AuthService </title>
<polygon fill="#fb8072" stroke="black" points="332.98,-252 243.02,-252 243.02,-216 332.98,-216 332.98,-252"/>
<text text-anchor="middle" x="288" y="-229.8" font-family="Times,serif" font-size="14.00">AuthService </text>
</g>
<!-- AuthModule&#45;&gt;AuthService  -->
<g id="edge2" class="edge">
<title>AuthModule&#45;&gt;AuthService </title>
<path fill="none" stroke="black" stroke-dasharray="5,2" d="M261.02,-187.11C261.02,-187.11 261.02,-205.99 261.02,-205.99"/>
<polygon fill="black" stroke="black" points="257.52,-205.99 261.02,-215.99 264.52,-205.99 257.52,-205.99"/>
</g>
<!-- JwtStrategy  -->
<g id="node4" class="node">
<title>JwtStrategy </title>
<polygon fill="#fb8072" stroke="black" points="224.6,-252 139.4,-252 139.4,-216 224.6,-216 224.6,-252"/>
<text text-anchor="middle" x="182" y="-229.8" font-family="Times,serif" font-size="14.00">JwtStrategy </text>
</g>
<!-- AuthModule&#45;&gt;JwtStrategy  -->
<g id="edge3" class="edge">
<title>AuthModule&#45;&gt;JwtStrategy </title>
<path fill="none" stroke="black" stroke-dasharray="5,2" d="M208.01,-187.11C208.01,-187.11 208.01,-205.99 208.01,-205.99"/>
<polygon fill="black" stroke="black" points="204.51,-205.99 208.01,-215.99 211.51,-205.99 204.51,-205.99"/>
</g>
<!-- AuthService -->
<g id="node5" class="node">
<title>AuthService</title>
<ellipse fill="#fdb462" stroke="black" cx="369" cy="-104" rx="59.11" ry="18"/>
<text text-anchor="middle" x="369" y="-99.8" font-family="Times,serif" font-size="14.00">AuthService</text>
</g>
<!-- AuthService&#45;&gt;AuthModule -->
<g id="edge4" class="edge">
<title>AuthService&#45;&gt;AuthModule</title>
<path fill="none" stroke="black" d="M321.22,-114.73C321.22,-133.2 321.22,-169 321.22,-169 321.22,-169 288.61,-169 288.61,-169"/>
<polygon fill="black" stroke="black" points="288.61,-165.5 278.61,-169 288.61,-172.5 288.61,-165.5"/>
</g>
<!-- JwtStrategy -->
<g id="node6" class="node">
<title>JwtStrategy</title>
<ellipse fill="#fdb462" stroke="black" cx="235" cy="-104" rx="56.76" ry="18"/>
<text text-anchor="middle" x="235" y="-99.8" font-family="Times,serif" font-size="14.00">JwtStrategy</text>
</g>
<!-- JwtStrategy&#45;&gt;AuthModule -->
<g id="edge5" class="edge">
<title>JwtStrategy&#45;&gt;AuthModule</title>
<path fill="none" stroke="black" d="M235,-122.11C235,-122.11 235,-140.99 235,-140.99"/>
<polygon fill="black" stroke="black" points="231.5,-140.99 235,-150.99 238.5,-140.99 231.5,-140.99"/>
</g>
</g>
</svg>
