<svg width="1920" height="272" viewBox="0 0 1920 272" fill="none" xmlns="http://www.w3.org/2000/svg">
<path d="M-3 181.961L61.101 144.433C125.202 107.467 253.404 31.5662 381.606 39.5779C509.808 47.0274 638.01 136.983 766.213 129.534C894.415 121.522 1022.62 17.5106 1150.82 2.04947C1279.02 -13.4117 1407.22 62.4886 1535.43 99.4548C1663.63 136.983 1791.83 136.983 1855.93 136.983L1920.03 136.983L1920.03 271.917L1855.93 271.917C1791.83 271.917 1663.63 271.917 1535.43 271.917C1407.22 271.917 1279.02 271.917 1150.82 271.917C1022.62 271.917 894.415 271.917 766.213 271.917C638.01 271.917 509.808 271.917 381.606 271.917C253.404 271.917 125.202 271.917 61.101 271.917L-3 271.917L-3 181.961Z" fill="#072540"/>
</svg>
