<?xml version="1.0" encoding="UTF-8" standalone="no"?>
<!DOCTYPE svg PUBLIC "-//W3C//DTD SVG 1.1//EN"
 "http://www.w3.org/Graphics/SVG/1.1/DTD/svg11.dtd">
<!-- Generated by graphviz version 2.44.1 (20200629.0846)
 -->
<!-- Title: dependencies Pages: 1 -->
<svg width="504pt" height="284pt"
 viewBox="0.00 0.00 504.00 284.00" xmlns="http://www.w3.org/2000/svg" xmlns:xlink="http://www.w3.org/1999/xlink">
<g id="graph0" class="graph" transform="scale(1 1) rotate(0) translate(4 280)">
<title>dependencies</title>
<polygon fill="white" stroke="transparent" points="-4,4 -4,-280 500,-280 500,4 -4,4"/>
<text text-anchor="start" x="227.01" y="-42.4" font-family="sans-serif" font-weight="bold" font-size="14.00">Legend</text>
<polygon fill="#ffffb3" stroke="transparent" points="14,-10 14,-30 34,-30 34,-10 14,-10"/>
<text text-anchor="start" x="37.63" y="-15.4" font-family="sans-serif" font-size="14.00"> &#160;Declarations</text>
<polygon fill="#8dd3c7" stroke="transparent" points="127,-10 127,-30 147,-30 147,-10 127,-10"/>
<text text-anchor="start" x="150.73" y="-15.4" font-family="sans-serif" font-size="14.00"> &#160;Module</text>
<polygon fill="#80b1d3" stroke="transparent" points="213,-10 213,-30 233,-30 233,-10 213,-10"/>
<text text-anchor="start" x="236.78" y="-15.4" font-family="sans-serif" font-size="14.00"> &#160;Bootstrap</text>
<polygon fill="#fdb462" stroke="transparent" points="310,-10 310,-30 330,-30 330,-10 310,-10"/>
<text text-anchor="start" x="333.67" y="-15.4" font-family="sans-serif" font-size="14.00"> &#160;Providers</text>
<polygon fill="#fb8072" stroke="transparent" points="406,-10 406,-30 426,-30 426,-10 406,-10"/>
<text text-anchor="start" x="429.73" y="-15.4" font-family="sans-serif" font-size="14.00"> &#160;Exports</text>
<g id="clust1" class="cluster">
<title>cluster_QuizzModule</title>
<polygon fill="none" stroke="black" stroke-dasharray="1,5" points="50,-70 50,-268 446,-268 446,-70 50,-70"/>
</g>
<g id="clust4" class="cluster">
<title>cluster_QuizzModule_exports</title>
<polygon fill="none" stroke="black" points="170,-208 170,-260 280,-260 280,-208 170,-208"/>
</g>
<g id="clust6" class="cluster">
<title>cluster_QuizzModule_providers</title>
<polygon fill="none" stroke="black" points="296,-78 296,-130 438,-130 438,-78 296,-78"/>
</g>
<g id="clust3" class="cluster">
<title>cluster_QuizzModule_imports</title>
<polygon fill="none" stroke="black" points="58,-78 58,-130 288,-130 288,-78 58,-78"/>
</g>
<!-- QuestionModule -->
<g id="node1" class="node">
<title>QuestionModule</title>
<polygon fill="#8dd3c7" stroke="black" points="280.1,-122 277.1,-126 256.1,-126 253.1,-122 169.9,-122 169.9,-86 280.1,-86 280.1,-122"/>
<text text-anchor="middle" x="225" y="-99.8" font-family="Times,serif" font-size="14.00">QuestionModule</text>
</g>
<!-- QuizzModule -->
<g id="node3" class="node">
<title>QuizzModule</title>
<polygon fill="#8dd3c7" stroke="black" points="271.48,-187 268.48,-191 247.48,-191 244.48,-187 178.52,-187 178.52,-151 271.48,-151 271.48,-187"/>
<text text-anchor="middle" x="225" y="-164.8" font-family="Times,serif" font-size="14.00">QuizzModule</text>
</g>
<!-- QuestionModule&#45;&gt;QuizzModule -->
<g id="edge1" class="edge">
<title>QuestionModule&#45;&gt;QuizzModule</title>
<path fill="none" stroke="black" d="M225,-122.11C225,-122.11 225,-140.99 225,-140.99"/>
<polygon fill="black" stroke="black" points="221.5,-140.99 225,-150.99 228.5,-140.99 221.5,-140.99"/>
</g>
<!-- UserModule -->
<g id="node2" class="node">
<title>UserModule</title>
<polygon fill="#8dd3c7" stroke="black" points="151.98,-122 148.98,-126 127.98,-126 124.98,-122 66.02,-122 66.02,-86 151.98,-86 151.98,-122"/>
<text text-anchor="middle" x="109" y="-99.8" font-family="Times,serif" font-size="14.00">UserModule</text>
</g>
<!-- UserModule&#45;&gt;QuizzModule -->
<g id="edge2" class="edge">
<title>UserModule&#45;&gt;QuizzModule</title>
<path fill="none" stroke="black" d="M109,-122.11C109,-141.34 109,-169 109,-169 109,-169 168.49,-169 168.49,-169"/>
<polygon fill="black" stroke="black" points="168.49,-172.5 178.49,-169 168.49,-165.5 168.49,-172.5"/>
</g>
<!-- QuizzService  -->
<g id="node4" class="node">
<title>QuizzService </title>
<polygon fill="#fb8072" stroke="black" points="272.4,-252 177.6,-252 177.6,-216 272.4,-216 272.4,-252"/>
<text text-anchor="middle" x="225" y="-229.8" font-family="Times,serif" font-size="14.00">QuizzService </text>
</g>
<!-- QuizzModule&#45;&gt;QuizzService  -->
<g id="edge3" class="edge">
<title>QuizzModule&#45;&gt;QuizzService </title>
<path fill="none" stroke="black" stroke-dasharray="5,2" d="M225,-187.11C225,-187.11 225,-205.99 225,-205.99"/>
<polygon fill="black" stroke="black" points="221.5,-205.99 225,-215.99 228.5,-205.99 221.5,-205.99"/>
</g>
<!-- QuizzService -->
<g id="node5" class="node">
<title>QuizzService</title>
<ellipse fill="#fdb462" stroke="black" cx="367" cy="-104" rx="63.1" ry="18"/>
<text text-anchor="middle" x="367" y="-99.8" font-family="Times,serif" font-size="14.00">QuizzService</text>
</g>
<!-- QuizzService&#45;&gt;QuizzModule -->
<g id="edge4" class="edge">
<title>QuizzService&#45;&gt;QuizzModule</title>
<path fill="none" stroke="black" d="M367,-122.11C367,-141.34 367,-169 367,-169 367,-169 281.5,-169 281.5,-169"/>
<polygon fill="black" stroke="black" points="281.5,-165.5 271.5,-169 281.5,-172.5 281.5,-165.5"/>
</g>
</g>
</svg>
