<?xml version="1.0" encoding="UTF-8" standalone="no"?>
<!DOCTYPE svg PUBLIC "-//W3C//DTD SVG 1.1//EN"
 "http://www.w3.org/Graphics/SVG/1.1/DTD/svg11.dtd">
<!-- Generated by graphviz version 2.44.1 (20200629.0846)
 -->
<!-- Title: dependencies Pages: 1 -->
<svg width="1078pt" height="295pt"
 viewBox="0.00 0.00 1078.00 295.00" xmlns="http://www.w3.org/2000/svg" xmlns:xlink="http://www.w3.org/1999/xlink">
<g id="graph0" class="graph" transform="scale(1 1) rotate(0) translate(4 291)">
<title>dependencies</title>
<polygon fill="white" stroke="transparent" points="-4,4 -4,-291 1074,-291 1074,4 -4,4"/>
<text text-anchor="start" x="514.01" y="-42.4" font-family="sans-serif" font-weight="bold" font-size="14.00">Legend</text>
<polygon fill="#ffffb3" stroke="transparent" points="301,-10 301,-30 321,-30 321,-10 301,-10"/>
<text text-anchor="start" x="324.63" y="-15.4" font-family="sans-serif" font-size="14.00"> &#160;Declarations</text>
<polygon fill="#8dd3c7" stroke="transparent" points="414,-10 414,-30 434,-30 434,-10 414,-10"/>
<text text-anchor="start" x="437.73" y="-15.4" font-family="sans-serif" font-size="14.00"> &#160;Module</text>
<polygon fill="#80b1d3" stroke="transparent" points="500,-10 500,-30 520,-30 520,-10 500,-10"/>
<text text-anchor="start" x="523.78" y="-15.4" font-family="sans-serif" font-size="14.00"> &#160;Bootstrap</text>
<polygon fill="#fdb462" stroke="transparent" points="597,-10 597,-30 617,-30 617,-10 597,-10"/>
<text text-anchor="start" x="620.67" y="-15.4" font-family="sans-serif" font-size="14.00"> &#160;Providers</text>
<polygon fill="#fb8072" stroke="transparent" points="693,-10 693,-30 713,-30 713,-10 693,-10"/>
<text text-anchor="start" x="716.73" y="-15.4" font-family="sans-serif" font-size="14.00"> &#160;Exports</text>
<g id="clust1" class="cluster">
<title>cluster_AppModule</title>
<polygon fill="none" stroke="black" stroke-dasharray="1,5" points="8,-70 8,-271 270,-271 270,-70 8,-70"/>
</g>
<g id="clust3" class="cluster">
<title>cluster_AppModule_imports</title>
<polygon fill="none" stroke="black" points="32,-78 32,-195 262,-195 262,-78 32,-78"/>
</g>
<g id="clust7" class="cluster">
<title>cluster_AuthModule</title>
<polygon fill="none" stroke="black" stroke-dasharray="1,5" points="278,-211 278,-279 778,-279 778,-211 278,-211"/>
</g>
<g id="clust10" class="cluster">
<title>cluster_AuthModule_exports</title>
<polygon fill="none" stroke="black" points="560,-219 560,-271 770,-271 770,-219 560,-219"/>
</g>
<g id="clust12" class="cluster">
<title>cluster_AuthModule_providers</title>
<polygon fill="none" stroke="black" points="286,-219 286,-271 552,-271 552,-219 286,-219"/>
</g>
<g id="clust13" class="cluster">
<title>cluster_QuestionModule</title>
<polygon fill="none" stroke="black" stroke-dasharray="1,5" points="278,-135 278,-203 596,-203 596,-135 278,-135"/>
</g>
<g id="clust16" class="cluster">
<title>cluster_QuestionModule_exports</title>
<polygon fill="none" stroke="black" points="460,-143 460,-195 588,-195 588,-143 460,-143"/>
</g>
<g id="clust18" class="cluster">
<title>cluster_QuestionModule_providers</title>
<polygon fill="none" stroke="black" points="286,-143 286,-195 452,-195 452,-143 286,-143"/>
</g>
<g id="clust19" class="cluster">
<title>cluster_QuizzModule</title>
<polygon fill="none" stroke="black" stroke-dasharray="1,5" points="786,-211 786,-279 1062,-279 1062,-211 786,-211"/>
</g>
<g id="clust22" class="cluster">
<title>cluster_QuizzModule_exports</title>
<polygon fill="none" stroke="black" points="944,-219 944,-271 1054,-271 1054,-219 944,-219"/>
</g>
<g id="clust24" class="cluster">
<title>cluster_QuizzModule_providers</title>
<polygon fill="none" stroke="black" points="794,-219 794,-271 936,-271 936,-219 794,-219"/>
</g>
<g id="clust25" class="cluster">
<title>cluster_UserModule</title>
<polygon fill="none" stroke="black" stroke-dasharray="1,5" points="604,-135 604,-203 864,-203 864,-135 604,-135"/>
</g>
<g id="clust28" class="cluster">
<title>cluster_UserModule_exports</title>
<polygon fill="none" stroke="black" points="752,-143 752,-195 856,-195 856,-143 752,-143"/>
</g>
<g id="clust30" class="cluster">
<title>cluster_UserModule_providers</title>
<polygon fill="none" stroke="black" points="612,-143 612,-195 744,-195 744,-143 612,-143"/>
</g>
<!-- AuthModule -->
<g id="node1" class="node">
<title>AuthModule</title>
<polygon fill="#8dd3c7" stroke="black" points="143.55,-187 140.55,-191 119.55,-191 116.55,-187 56.45,-187 56.45,-151 143.55,-151 143.55,-187"/>
<text text-anchor="middle" x="100" y="-164.8" font-family="Times,serif" font-size="14.00">AuthModule</text>
</g>
<!-- AppModule -->
<g id="node5" class="node">
<title>AppModule</title>
<polygon fill="#8dd3c7" stroke="black" points="120.66,-263 117.66,-267 96.66,-267 93.66,-263 37.34,-263 37.34,-227 120.66,-227 120.66,-263"/>
<text text-anchor="middle" x="79" y="-240.8" font-family="Times,serif" font-size="14.00">AppModule</text>
</g>
<!-- AuthModule&#45;&gt;AppModule -->
<g id="edge1" class="edge">
<title>AuthModule&#45;&gt;AppModule</title>
<path fill="none" stroke="black" d="M88.53,-187.01C88.53,-187.01 88.53,-216.85 88.53,-216.85"/>
<polygon fill="black" stroke="black" points="85.03,-216.85 88.53,-226.85 92.03,-216.85 85.03,-216.85"/>
</g>
<!-- AuthService  -->
<g id="node6" class="node">
<title>AuthService </title>
<polygon fill="#fb8072" stroke="black" points="657.98,-263 568.02,-263 568.02,-227 657.98,-227 657.98,-263"/>
<text text-anchor="middle" x="613" y="-240.8" font-family="Times,serif" font-size="14.00">AuthService </text>
</g>
<!-- AuthModule&#45;&gt;AuthService  -->
<g id="edge6" class="edge">
<title>AuthModule&#45;&gt;AuthService </title>
<path fill="none" stroke="black" stroke-dasharray="5,2" d="M125.42,-187.04C125.42,-199.56 125.42,-214 125.42,-214 125.42,-214 574.14,-214 574.14,-214 574.14,-214 574.14,-216.97 574.14,-216.97"/>
<polygon fill="black" stroke="black" points="570.64,-216.97 574.14,-226.97 577.64,-216.97 570.64,-216.97"/>
</g>
<!-- JwtStrategy  -->
<g id="node7" class="node">
<title>JwtStrategy </title>
<polygon fill="#fb8072" stroke="black" points="761.6,-263 676.4,-263 676.4,-227 761.6,-227 761.6,-263"/>
<text text-anchor="middle" x="719" y="-240.8" font-family="Times,serif" font-size="14.00">JwtStrategy </text>
</g>
<!-- AuthModule&#45;&gt;JwtStrategy  -->
<g id="edge7" class="edge">
<title>AuthModule&#45;&gt;JwtStrategy </title>
<path fill="none" stroke="black" stroke-dasharray="5,2" d="M130.01,-187.11C130.01,-196.9 130.01,-207 130.01,-207 130.01,-207 706.21,-207 706.21,-207 706.21,-207 706.21,-216.89 706.21,-216.89"/>
<polygon fill="black" stroke="black" points="702.71,-216.89 706.21,-226.89 709.71,-216.89 702.71,-216.89"/>
</g>
<!-- QuestionModule -->
<g id="node2" class="node">
<title>QuestionModule</title>
<polygon fill="#8dd3c7" stroke="black" points="150.1,-122 147.1,-126 126.1,-126 123.1,-122 39.9,-122 39.9,-86 150.1,-86 150.1,-122"/>
<text text-anchor="middle" x="95" y="-99.8" font-family="Times,serif" font-size="14.00">QuestionModule</text>
</g>
<!-- QuizzModule -->
<g id="node3" class="node">
<title>QuizzModule</title>
<polygon fill="#8dd3c7" stroke="black" points="254.48,-187 251.48,-191 230.48,-191 227.48,-187 161.52,-187 161.52,-151 254.48,-151 254.48,-187"/>
<text text-anchor="middle" x="208" y="-164.8" font-family="Times,serif" font-size="14.00">QuizzModule</text>
</g>
<!-- QuestionModule&#45;&gt;QuizzModule -->
<g id="edge12" class="edge">
<title>QuestionModule&#45;&gt;QuizzModule</title>
<path fill="none" stroke="black" d="M150.06,-104C155.27,-104 158.65,-104 158.65,-104 158.65,-104 158.65,-175 158.65,-175 158.65,-175 158.91,-175 158.91,-175"/>
<polygon fill="black" stroke="black" points="151.3,-178.5 161.3,-175 151.3,-171.5 151.3,-178.5"/>
</g>
<!-- QuestionModule&#45;&gt;AppModule -->
<g id="edge2" class="edge">
<title>QuestionModule&#45;&gt;AppModule</title>
<path fill="none" stroke="black" d="M48.09,-122.14C48.09,-122.14 48.09,-216.93 48.09,-216.93"/>
<polygon fill="black" stroke="black" points="44.59,-216.92 48.09,-226.93 51.59,-216.93 44.59,-216.92"/>
</g>
<!-- QuestionService  -->
<g id="node10" class="node">
<title>QuestionService </title>
<polygon fill="#fb8072" stroke="black" points="580.02,-187 467.98,-187 467.98,-151 580.02,-151 580.02,-187"/>
<text text-anchor="middle" x="524" y="-164.8" font-family="Times,serif" font-size="14.00">QuestionService </text>
</g>
<!-- QuestionModule&#45;&gt;QuestionService  -->
<g id="edge10" class="edge">
<title>QuestionModule&#45;&gt;QuestionService </title>
<path fill="none" stroke="black" stroke-dasharray="5,2" d="M85.41,-122.21C85.41,-127.55 85.41,-132 85.41,-132 85.41,-132 524,-132 524,-132 524,-132 524,-140.93 524,-140.93"/>
<polygon fill="black" stroke="black" points="520.5,-140.93 524,-150.93 527.5,-140.93 520.5,-140.93"/>
</g>
<!-- QuizzModule&#45;&gt;AppModule -->
<g id="edge3" class="edge">
<title>QuizzModule&#45;&gt;AppModule</title>
<path fill="none" stroke="black" d="M231.24,-187.01C231.24,-209.49 231.24,-245 231.24,-245 231.24,-245 131,-245 131,-245"/>
<polygon fill="black" stroke="black" points="131,-241.5 121,-245 131,-248.5 131,-241.5"/>
</g>
<!-- QuizzService  -->
<g id="node12" class="node">
<title>QuizzService </title>
<polygon fill="#fb8072" stroke="black" points="1046.4,-263 951.6,-263 951.6,-227 1046.4,-227 1046.4,-263"/>
<text text-anchor="middle" x="999" y="-240.8" font-family="Times,serif" font-size="14.00">QuizzService </text>
</g>
<!-- QuizzModule&#45;&gt;QuizzService  -->
<g id="edge14" class="edge">
<title>QuizzModule&#45;&gt;QuizzService </title>
<path fill="none" stroke="black" stroke-dasharray="5,2" d="M184.76,-187.17C184.76,-191.05 184.76,-194 184.76,-194 184.76,-194 999,-194 999,-194 999,-194 999,-216.88 999,-216.88"/>
<polygon fill="black" stroke="black" points="995.5,-216.88 999,-226.88 1002.5,-216.88 995.5,-216.88"/>
</g>
<!-- UserModule -->
<g id="node4" class="node">
<title>UserModule</title>
<polygon fill="#8dd3c7" stroke="black" points="253.98,-122 250.98,-126 229.98,-126 226.98,-122 168.02,-122 168.02,-86 253.98,-86 253.98,-122"/>
<text text-anchor="middle" x="211" y="-99.8" font-family="Times,serif" font-size="14.00">UserModule</text>
</g>
<!-- UserModule&#45;&gt;AuthModule -->
<g id="edge5" class="edge">
<title>UserModule&#45;&gt;AuthModule</title>
<path fill="none" stroke="black" d="M167.87,-95C159.32,-95 152.91,-95 152.91,-95 152.91,-95 152.91,-163 152.91,-163 152.91,-163 151.99,-163 151.99,-163"/>
<polygon fill="black" stroke="black" points="153.7,-159.5 143.7,-163 153.7,-166.5 153.7,-159.5"/>
</g>
<!-- UserModule&#45;&gt;QuizzModule -->
<g id="edge13" class="edge">
<title>UserModule&#45;&gt;QuizzModule</title>
<path fill="none" stroke="black" d="M211,-122.11C211,-122.11 211,-140.99 211,-140.99"/>
<polygon fill="black" stroke="black" points="207.5,-140.99 211,-150.99 214.5,-140.99 207.5,-140.99"/>
</g>
<!-- UserModule&#45;&gt;AppModule -->
<g id="edge4" class="edge">
<title>UserModule&#45;&gt;AppModule</title>
<path fill="none" stroke="black" d="M167.76,-113C160.78,-113 155.78,-113 155.78,-113 155.78,-113 155.78,-236 155.78,-236 155.78,-236 130.98,-236 130.98,-236"/>
<polygon fill="black" stroke="black" points="130.98,-232.5 120.98,-236 130.98,-239.5 130.98,-232.5"/>
</g>
<!-- UserService  -->
<g id="node14" class="node">
<title>UserService </title>
<polygon fill="#fb8072" stroke="black" points="847.9,-187 760.1,-187 760.1,-151 847.9,-151 847.9,-187"/>
<text text-anchor="middle" x="804" y="-164.8" font-family="Times,serif" font-size="14.00">UserService </text>
</g>
<!-- UserModule&#45;&gt;UserService  -->
<g id="edge16" class="edge">
<title>UserModule&#45;&gt;UserService </title>
<path fill="none" stroke="black" stroke-dasharray="5,2" d="M254.12,-98C390.58,-98 804,-98 804,-98 804,-98 804,-140.72 804,-140.72"/>
<polygon fill="black" stroke="black" points="800.5,-140.72 804,-150.72 807.5,-140.72 800.5,-140.72"/>
</g>
<!-- AuthService -->
<g id="node8" class="node">
<title>AuthService</title>
<ellipse fill="#fdb462" stroke="black" cx="353" cy="-245" rx="59.11" ry="18"/>
<text text-anchor="middle" x="353" y="-240.8" font-family="Times,serif" font-size="14.00">AuthService</text>
</g>
<!-- AuthService&#45;&gt;AuthModule -->
<g id="edge8" class="edge">
<title>AuthService&#45;&gt;AuthModule</title>
<path fill="none" stroke="black" d="M301.51,-254C238.25,-254 139.18,-254 139.18,-254 139.18,-254 139.18,-197.03 139.18,-197.03"/>
<polygon fill="black" stroke="black" points="142.68,-197.03 139.18,-187.03 135.68,-197.03 142.68,-197.03"/>
</g>
<!-- JwtStrategy -->
<g id="node9" class="node">
<title>JwtStrategy</title>
<ellipse fill="#fdb462" stroke="black" cx="487" cy="-245" rx="56.76" ry="18"/>
<text text-anchor="middle" x="487" y="-240.8" font-family="Times,serif" font-size="14.00">JwtStrategy</text>
</g>
<!-- JwtStrategy&#45;&gt;AuthModule -->
<g id="edge9" class="edge">
<title>JwtStrategy&#45;&gt;AuthModule</title>
<path fill="none" stroke="black" d="M437.12,-236.34C437.12,-229.46 437.12,-221 437.12,-221 437.12,-221 134.6,-221 134.6,-221 134.6,-221 134.6,-197.19 134.6,-197.19"/>
<polygon fill="black" stroke="black" points="138.1,-197.19 134.6,-187.19 131.1,-197.19 138.1,-197.19"/>
</g>
<!-- QuestionService -->
<g id="node11" class="node">
<title>QuestionService</title>
<ellipse fill="#fdb462" stroke="black" cx="369" cy="-169" rx="74.72" ry="18"/>
<text text-anchor="middle" x="369" y="-164.8" font-family="Times,serif" font-size="14.00">QuestionService</text>
</g>
<!-- QuestionService&#45;&gt;QuestionModule -->
<g id="edge11" class="edge">
<title>QuestionService&#45;&gt;QuestionModule</title>
<path fill="none" stroke="black" d="M369,-150.84C369,-145.96 369,-142 369,-142 369,-142 114.59,-142 114.59,-142 114.59,-142 114.59,-132.11 114.59,-132.11"/>
<polygon fill="black" stroke="black" points="118.09,-132.11 114.59,-122.11 111.09,-132.11 118.09,-132.11"/>
</g>
<!-- QuizzService -->
<g id="node13" class="node">
<title>QuizzService</title>
<ellipse fill="#fdb462" stroke="black" cx="865" cy="-245" rx="63.1" ry="18"/>
<text text-anchor="middle" x="865" y="-240.8" font-family="Times,serif" font-size="14.00">QuizzService</text>
</g>
<!-- QuizzService&#45;&gt;QuizzModule -->
<g id="edge15" class="edge">
<title>QuizzService&#45;&gt;QuizzModule</title>
<path fill="none" stroke="black" d="M824.95,-231.08C824.95,-218.19 824.95,-201 824.95,-201 824.95,-201 208,-201 208,-201 208,-201 208,-197.24 208,-197.24"/>
<polygon fill="black" stroke="black" points="211.5,-197.24 208,-187.24 204.5,-197.24 211.5,-197.24"/>
</g>
<!-- UserService -->
<g id="node15" class="node">
<title>UserService</title>
<ellipse fill="#fdb462" stroke="black" cx="678" cy="-169" rx="58.44" ry="18"/>
<text text-anchor="middle" x="678" y="-164.8" font-family="Times,serif" font-size="14.00">UserService</text>
</g>
<!-- UserService&#45;&gt;UserModule -->
<g id="edge17" class="edge">
<title>UserService&#45;&gt;UserModule</title>
<path fill="none" stroke="black" d="M678,-150.98C678,-133.63 678,-110 678,-110 678,-110 264.1,-110 264.1,-110"/>
<polygon fill="black" stroke="black" points="264.1,-106.5 254.1,-110 264.1,-113.5 264.1,-106.5"/>
</g>
</g>
</svg>
