<?xml version="1.0" encoding="UTF-8" standalone="no"?>
<!DOCTYPE svg PUBLIC "-//W3C//DTD SVG 1.1//EN"
 "http://www.w3.org/Graphics/SVG/1.1/DTD/svg11.dtd">
<!-- Generated by graphviz version 2.44.1 (20200629.0846)
 -->
<!-- Title: dependencies Pages: 1 -->
<svg width="504pt" height="211pt"
 viewBox="0.00 0.00 504.00 211.00" xmlns="http://www.w3.org/2000/svg" xmlns:xlink="http://www.w3.org/1999/xlink">
<g id="graph0" class="graph" transform="scale(1 1) rotate(0) translate(4 207)">
<title>dependencies</title>
<polygon fill="white" stroke="transparent" points="-4,4 -4,-207 500,-207 500,4 -4,4"/>
<text text-anchor="start" x="227.01" y="-42.4" font-family="sans-serif" font-weight="bold" font-size="14.00">Legend</text>
<polygon fill="#ffffb3" stroke="transparent" points="14,-10 14,-30 34,-30 34,-10 14,-10"/>
<text text-anchor="start" x="37.63" y="-15.4" font-family="sans-serif" font-size="14.00"> &#160;Declarations</text>
<polygon fill="#8dd3c7" stroke="transparent" points="127,-10 127,-30 147,-30 147,-10 127,-10"/>
<text text-anchor="start" x="150.73" y="-15.4" font-family="sans-serif" font-size="14.00"> &#160;Module</text>
<polygon fill="#80b1d3" stroke="transparent" points="213,-10 213,-30 233,-30 233,-10 213,-10"/>
<text text-anchor="start" x="236.78" y="-15.4" font-family="sans-serif" font-size="14.00"> &#160;Bootstrap</text>
<polygon fill="#fdb462" stroke="transparent" points="310,-10 310,-30 330,-30 330,-10 310,-10"/>
<text text-anchor="start" x="333.67" y="-15.4" font-family="sans-serif" font-size="14.00"> &#160;Providers</text>
<polygon fill="#fb8072" stroke="transparent" points="406,-10 406,-30 426,-30 426,-10 406,-10"/>
<text text-anchor="start" x="429.73" y="-15.4" font-family="sans-serif" font-size="14.00"> &#160;Exports</text>
<g id="clust1" class="cluster">
<title>cluster_AppModule</title>
<polygon fill="none" stroke="black" stroke-dasharray="1,5" points="16.5,-70 16.5,-195 479.5,-195 479.5,-70 16.5,-70"/>
</g>
<g id="clust3" class="cluster">
<title>cluster_AppModule_imports</title>
<polygon fill="none" stroke="black" points="24.5,-78 24.5,-130 471.5,-130 471.5,-78 24.5,-78"/>
</g>
<!-- AuthModule -->
<g id="node1" class="node">
<title>AuthModule</title>
<polygon fill="#8dd3c7" stroke="black" points="463.05,-122 460.05,-126 439.05,-126 436.05,-122 375.95,-122 375.95,-86 463.05,-86 463.05,-122"/>
<text text-anchor="middle" x="419.5" y="-99.8" font-family="Times,serif" font-size="14.00">AuthModule</text>
</g>
<!-- AppModule -->
<g id="node5" class="node">
<title>AppModule</title>
<polygon fill="#8dd3c7" stroke="black" points="284.16,-187 281.16,-191 260.16,-191 257.16,-187 200.84,-187 200.84,-151 284.16,-151 284.16,-187"/>
<text text-anchor="middle" x="242.5" y="-164.8" font-family="Times,serif" font-size="14.00">AppModule</text>
</g>
<!-- AuthModule&#45;&gt;AppModule -->
<g id="edge1" class="edge">
<title>AuthModule&#45;&gt;AppModule</title>
<path fill="none" stroke="black" d="M419.5,-122.11C419.5,-141.34 419.5,-169 419.5,-169 419.5,-169 294.45,-169 294.45,-169"/>
<polygon fill="black" stroke="black" points="294.45,-165.5 284.45,-169 294.45,-172.5 294.45,-165.5"/>
</g>
<!-- QuestionModule -->
<g id="node2" class="node">
<title>QuestionModule</title>
<polygon fill="#8dd3c7" stroke="black" points="357.6,-122 354.6,-126 333.6,-126 330.6,-122 247.4,-122 247.4,-86 357.6,-86 357.6,-122"/>
<text text-anchor="middle" x="302.5" y="-99.8" font-family="Times,serif" font-size="14.00">QuestionModule</text>
</g>
<!-- QuestionModule&#45;&gt;AppModule -->
<g id="edge2" class="edge">
<title>QuestionModule&#45;&gt;AppModule</title>
<path fill="none" stroke="black" d="M265.89,-122.11C265.89,-122.11 265.89,-140.99 265.89,-140.99"/>
<polygon fill="black" stroke="black" points="262.39,-140.99 265.89,-150.99 269.39,-140.99 262.39,-140.99"/>
</g>
<!-- QuizzModule -->
<g id="node3" class="node">
<title>QuizzModule</title>
<polygon fill="#8dd3c7" stroke="black" points="228.98,-122 225.98,-126 204.98,-126 201.98,-122 136.02,-122 136.02,-86 228.98,-86 228.98,-122"/>
<text text-anchor="middle" x="182.5" y="-99.8" font-family="Times,serif" font-size="14.00">QuizzModule</text>
</g>
<!-- QuizzModule&#45;&gt;AppModule -->
<g id="edge3" class="edge">
<title>QuizzModule&#45;&gt;AppModule</title>
<path fill="none" stroke="black" d="M214.83,-122.11C214.83,-122.11 214.83,-140.99 214.83,-140.99"/>
<polygon fill="black" stroke="black" points="211.33,-140.99 214.83,-150.99 218.33,-140.99 211.33,-140.99"/>
</g>
<!-- UserModule -->
<g id="node4" class="node">
<title>UserModule</title>
<polygon fill="#8dd3c7" stroke="black" points="118.48,-122 115.48,-126 94.48,-126 91.48,-122 32.52,-122 32.52,-86 118.48,-86 118.48,-122"/>
<text text-anchor="middle" x="75.5" y="-99.8" font-family="Times,serif" font-size="14.00">UserModule</text>
</g>
<!-- UserModule&#45;&gt;AppModule -->
<g id="edge4" class="edge">
<title>UserModule&#45;&gt;AppModule</title>
<path fill="none" stroke="black" d="M75.5,-122.11C75.5,-141.34 75.5,-169 75.5,-169 75.5,-169 190.79,-169 190.79,-169"/>
<polygon fill="black" stroke="black" points="190.79,-172.5 200.79,-169 190.79,-165.5 190.79,-172.5"/>
</g>
</g>
</svg>
